PathFileType	4	(x/y/z)	S02_M20_T14
DataRate	CameraRate	NumFrames	NumMarkers	Units	OrigDataRate	OrigDataStartFrame	OrigNumFrames
240	240	8	51	mm	240	58	460
Frame#	Time	Sternum			R.Acromium			L.Acromium			Top.Head			R.ASIS			L.ASIS			R.PSIS			L.PSIS			R.Great.Tro			L.Great.Tro			R.Iliac.Crest			L.Iliac.Crest			V.Sacral			R.Thigh.Upper.Post			R.Thigh.Lower.Ant			R.Thigh.Lower.Post			R.Thigh.Upper.Ant			R.Knee.Lat			R.Knee.Med			R.Shank.Upper.Post			R.Shank.Lower.Ant			R.Shank.Lower.Post			R.Shank.Upper.Ant			R.Ankle.Lat			R.Ankle.Med			R.Heel.Upper			R.Heel.Med			R.Heel.Lat			R.Toe.Lat			R.Toe.Med			R.Toe.Tip			L.Thigh.Upper.Post			L.Thigh.Lower.Ant			L.Thigh.Lower.Post			L.Thigh.Upper.Ant			L.Knee.Lat			L.Knee.Med			L.Shank.Upper.Post			L.Shank.Lower.Ant			L.Shank.Lower.Post			L.Shank.Upper.Ant			L.Ankle.Lat			L.Ankle.Med			L.Heel.Upper			L.Heel.Med			L.Heel.Lat			L.Toe.Lat			L.Toe.Med			L.Toe.Tip			Cervical.Spine			Back			
		X1	Y1	Z1	X2	Y2	Z2	X3	Y3	Z3	X4	Y4	Z4	X5	Y5	Z5	X6	Y6	Z6	X7	Y7	Z7	X8	Y8	Z8	X9	Y9	Z9	X10	Y10	Z10	X11	Y11	Z11	X12	Y12	Z12	X13	Y13	Z13	X14	Y14	Z14	X15	Y15	Z15	X16	Y16	Z16	X17	Y17	Z17	X18	Y18	Z18	X19	Y19	Z19	X20	Y20	Z20	X21	Y21	Z21	X22	Y22	Z22	X23	Y23	Z23	X24	Y24	Z24	X25	Y25	Z25	X26	Y26	Z26	X27	Y27	Z27	X28	Y28	Z28	X29	Y29	Z29	X30	Y30	Z30	X31	Y31	Z31	X32	Y32	Z32	X33	Y33	Z33	X34	Y34	Z34	X35	Y35	Z35	X36	Y36	Z36	X37	Y37	Z37	X38	Y38	Z38	X39	Y39	Z39	X40	Y40	Z40	X41	Y41	Z41	X42	Y42	Z42	X43	Y43	Z43	X44	Y44	Z44	X45	Y45	Z45	X46	Y46	Z46	X47	Y47	Z47	X48	Y48	Z48	X49	Y49	Z49	X50	Y50	Z50	X51	Y51	Z51	

58	0.2375	-1192.6	1099.7	304.9	-1325.4	1340.4	432.4	-1306.5	1326.4	137.26	-1279.3	1618.7	265.57	-1237.3	907.16	423.31	-1200.1	904.93	208.52	-1443.1	942.98	335.11	-1443.5	955	260.5	-1323.2	784.95	497.81	-1301.5	829.87	107.1	-1359.6	960.46	466.35	-1314.8	960.29	128.29	-1469.7	903.64	284.94	-1309	595.13	498.83	-1245.7	513.75	486.55	-1319.4	505.68	486.19	-1237.9	602.87	495.82	-1310.1	431.16	485.35	-1282.9	404.93	342.22	-1497.6	362.43	442.73	-1525.6	256.47	432.15	-1557.4	315.89	429.79	-1473.1	298.73	453.85	-1620.8	242.7	415.48	-1586.5	240.21	333.3	-1648.1	290.72	354.37	-1659.9	267.21	320.37	-1688.1	275.73	383.23	-1634	124.42	434.98	-1599.6	95.878	332.19	-1565.9	63.114	392.68	-1288.7	596.97	138.49	-1196.5	537.62	155.09	-1271.7	511.27	165.84	-1223	625.76	129.11	-1201.2	453.49	171.47	-1212.6	456.64	307.7	-1283.1	284.15	171.52	-1218.3	196.19	195.58	-1288.2	213.44	187.78	-1220.9	269.97	177.26	-1270.7	97.779	207.42	-1267.3	94.53	290.03	-1335.2	69.031	242.04	-1327.4	43.723	275.39	-1328.3	41.287	213.9	-1161.3	34.959	191.43	-1145.4	43.234	302.85	-1082	58.544	257.91	-1398.8	1391.5	280.2	-1461.1	1136.3	295.41
59	0.24167	-1187.5	1100.8	305.03	-1320.4	1341.4	432.34	-1301.3	1327.3	137.11	-1273.9	1619.7	265.44	-1232.2	908.52	423.38	-1195.1	905.57	208.5	-1438	944.26	334.83	-1438.4	956.24	260.22	-1317.5	786.32	497.7	-1297.5	830.5	107.09	-1354.6	961.72	466.07	-1309.5	961.1	128.15	-1464.7	904.93	284.7	-1300.3	596.48	499.23	-1236.3	515.77	486.9	-1309.6	506.89	486.58	-1229.5	604.97	496.19	-1299.1	432.38	485.65	-1271.8	406.63	342.41	-1486.1	362.15	443.04	-1512.9	255.89	432.08	-1545.7	315.17	430.07	-1460.5	298.46	453.74	-1608.5	241.73	415.44	-1574.5	239.32	333.58	-1637	288.75	354.16	-1648.4	264.7	320.34	-1676.5	273.69	383.08	-1619.2	123.46	435.63	-1584.3	94.92	333.02	-1549.9	63.076	393.67	-1286.3	597.66	138.78	-1194.5	537.54	155.06	-1269.9	511.81	166.02	-1220.4	625.9	129.14	-1199.8	453.47	171.4	-1210.6	456.68	307.58	-1282.3	284.45	171.51	-1217.9	196.25	195.56	-1287.4	213.84	187.53	-1220.2	270.03	177.23	-1270.5	97.914	207.43	-1267.1	94.689	290.04	-1335.1	69.197	242.06	-1327.4	43.884	275.39	-1328.3	41.465	213.9	-1161.3	34.947	191.43	-1145.3	43.221	302.83	-1081.9	58.45	257.89	-1393.6	1392.5	279.92	-1456	1137.4	294.83
60	0.24583	-1182.5	1101.8	305.17	-1315.3	1342.4	432.29	-1296.2	1328.3	136.97	-1268.5	1620.7	265.31	-1227.1	909.88	423.42	-1190.1	906.24	208.46	-1432.9	945.56	334.61	-1433.2	957.48	259.99	-1311.9	787.69	497.61	-1293.5	831.12	107.11	-1349.7	962.98	465.81	-1304.3	961.92	128.03	-1459.8	906.22	284.52	-1291.5	597.85	499.63	-1226.8	517.83	487.2	-1299.8	508.13	486.95	-1221.2	607.1	496.54	-1288.1	433.64	485.91	-1260.8	408.42	342.54	-1474.7	361.76	443.34	-1500	255.19	432.01	-1533.9	314.31	430.35	-1447.8	298.11	453.61	-1596.1	240.58	415.42	-1562.4	238.25	333.86	-1625.7	286.54	353.97	-1636.7	261.95	320.33	-1664.6	271.35	382.95	-1604.2	122.34	436.27	-1568.8	93.852	333.85	-1533.7	62.954	394.64	-1284	598.37	139.07	-1192.6	537.47	155.04	-1268.2	512.37	166.21	-1217.8	626.05	129.18	-1198.4	453.47	171.34	-1208.8	456.73	307.47	-1281.6	284.77	171.51	-1217.4	196.32	195.54	-1286.6	214.25	187.3	-1219.6	270.11	177.21	-1270.3	98.054	207.45	-1267	94.857	290.04	-1335	69.368	242.08	-1327.3	44.05	275.39	-1328.2	41.647	213.9	-1161.2	34.936	191.42	-1145.3	43.209	302.82	-1081.8	58.357	257.87	-1388.5	1393.6	279.65	-1451	1138.4	294.27
61	0.25	-1177.5	1102.8	305.31	-1310.2	1343.4	432.24	-1291	1329.2	136.84	-1263.2	1621.6	265.19	-1222	911.23	423.42	-1185.1	906.93	208.4	-1427.7	946.85	334.44	-1428.1	958.71	259.82	-1306.3	789.07	497.55	-1289.6	831.74	107.15	-1344.6	964.26	465.59	-1299.2	962.73	127.93	-1454.8	907.52	284.42	-1282.8	599.26	500.03	-1217.4	519.94	487.46	-1290.1	509.42	487.3	-1212.9	609.27	496.85	-1277.2	434.94	486.12	-1249.9	410.3	342.61	-1463.3	361.27	443.65	-1487.1	254.36	431.93	-1522	313.29	430.63	-1435.1	297.7	453.47	-1583.6	239.25	415.41	-1550.3	237.01	334.13	-1614.4	284.1	353.81	-1625	258.96	320.35	-1652.7	268.71	382.84	-1588.9	121.06	436.92	-1553.1	92.68	334.67	-1517.3	62.759	395.6	-1281.6	599.09	139.35	-1190.7	537.4	155.03	-1266.5	512.94	166.39	-1215.2	626.21	129.24	-1197.1	453.49	171.3	-1207	456.79	307.38	-1280.9	285.1	171.52	-1217	196.4	195.52	-1285.8	214.64	187.1	-1218.9	270.2	177.19	-1270.1	98.198	207.47	-1266.9	95.034	290.04	-1335	69.543	242.1	-1327.3	44.222	275.4	-1328.2	41.832	213.91	-1161.2	34.926	191.42	-1145.2	43.197	302.81	-1081.7	58.263	257.86	-1383.4	1394.6	279.39	-1445.9	1139.4	293.73
62	0.25417	-1172.5	1103.9	305.45	-1305	1344.4	432.21	-1285.9	1330.1	136.73	-1257.9	1622.6	265.08	-1216.9	912.58	423.39	-1180.2	907.65	208.3	-1422.6	948.15	334.34	-1423.1	959.93	259.71	-1300.6	790.46	497.52	-1285.8	832.34	107.21	-1339.6	965.53	465.4	-1294.2	963.54	127.85	-1449.9	908.8	284.39	-1274.1	600.69	500.44	-1208	522.1	487.68	-1280.3	510.76	487.62	-1204.6	611.46	497.13	-1266.2	436.29	486.27	-1239	412.27	342.64	-1451.8	360.68	443.94	-1474.1	253.43	431.85	-1510.1	312.13	430.9	-1422.4	297.24	453.32	-1571.1	237.75	415.43	-1538	235.61	334.39	-1603	281.44	353.67	-1613.1	255.76	320.38	-1640.5	265.77	382.75	-1573.4	119.62	437.57	-1537.3	91.414	335.48	-1500.7	62.505	396.55	-1279.3	599.82	139.63	-1188.9	537.34	155.03	-1264.8	513.54	166.57	-1212.7	626.37	129.3	-1195.8	453.53	171.27	-1205.4	456.85	307.29	-1280.2	285.44	171.54	-1216.6	196.5	195.51	-1285.1	215.03	186.93	-1218.3	270.32	177.17	-1269.9	98.347	207.5	-1266.8	95.219	290.04	-1334.9	69.723	242.13	-1327.2	44.4	275.4	-1328.1	42.019	213.92	-1161.2	34.918	191.42	-1145.2	43.185	302.8	-1081.7	58.169	257.84	-1378.4	1395.6	279.14	-1440.9	1140.4	293.2
63	0.25833	-1167.6	1104.9	305.58	-1299.9	1345.3	432.19	-1280.7	1331.1	136.62	-1252.6	1623.5	264.98	-1211.8	913.93	423.33	-1175.3	908.39	208.18	-1417.5	949.43	334.29	-1418	961.12	259.66	-1294.8	791.84	497.5	-1282	832.93	107.3	-1334.5	966.81	465.25	-1289.3	964.35	127.78	-1445	910.07	284.43	-1265.5	602.13	500.85	-1198.7	524.3	487.85	-1270.7	512.13	487.92	-1196.4	613.68	497.37	-1255.3	437.68	486.37	-1228.3	414.3	342.63	-1440.4	360	444.23	-1461	252.4	431.77	-1498.2	310.83	431.17	-1409.7	296.74	453.18	-1558.5	236.07	415.46	-1525.7	234.05	334.65	-1591.4	278.55	353.55	-1601.1	252.33	320.44	-1628.1	262.53	382.68	-1557.7	118.03	438.23	-1521.2	90.061	336.28	-1484	62.202	397.5	-1276.9	600.55	139.9	-1187	537.28	155.04	-1263.1	514.15	166.76	-1210.2	626.53	129.37	-1194.5	453.57	171.26	-1203.8	456.91	307.22	-1279.5	285.79	171.57	-1216.2	196.62	195.5	-1284.4	215.43	186.8	-1217.8	270.44	177.16	-1269.8	98.502	207.53	-1266.7	95.411	290.05	-1334.8	69.907	242.16	-1327.2	44.582	275.41	-1328.1	42.211	213.93	-1161.2	34.912	191.43	-1145.1	43.173	302.79	-1081.6	58.074	257.83	-1373.3	1396.5	278.89	-1435.9	1141.4	292.69
64	0.2625	-1162.6	1105.9	305.71	-1294.7	1346.3	432.17	-1275.6	1332	136.53	-1247.4	1624.4	264.89	-1206.7	915.28	423.22	-1170.5	909.15	208.03	-1412.4	950.69	334.31	-1413	962.28	259.67	-1289.1	793.22	497.51	-1278.2	833.51	107.41	-1329.4	968.08	465.12	-1284.5	965.15	127.72	-1440.2	911.3	284.55	-1256.9	603.6	501.25	-1189.4	526.53	487.98	-1261	513.54	488.19	-1188.2	615.92	497.58	-1244.5	439.12	486.41	-1217.7	416.4	342.58	-1429	359.22	444.5	-1447.8	251.28	431.71	-1486.1	309.4	431.44	-1397.1	296.21	453.04	-1545.7	234.22	415.53	-1513.1	232.34	334.89	-1579.8	275.44	353.47	-1588.9	248.68	320.53	-1615.6	259	382.63	-1541.8	116.31	438.88	-1505	88.629	337.08	-1467.1	61.864	398.44	-1274.6	601.29	140.17	-1185.2	537.23	155.05	-1261.5	514.77	166.94	-1207.6	626.69	129.44	-1193.2	453.63	171.27	-1202.4	456.99	307.18	-1278.8	286.15	171.61	-1215.8	196.74	195.49	-1283.7	215.82	186.7	-1217.2	270.58	177.15	-1269.6	98.662	207.57	-1266.6	95.608	290.05	-1334.7	70.096	242.19	-1327.1	44.769	275.42	-1328	42.405	213.95	-1161.1	34.908	191.43	-1145.1	43.162	302.78	-1081.5	57.979	257.81	-1368.2	1397.5	278.65	-1430.9	1142.4	292.2
65	0.26667	-1157.7	1106.9	305.83	-1289.4	1347.2	432.17	-1270.5	1333	136.44	-1242.2	1625.3	264.8	-1201.5	916.61	423.07	-1165.7	909.93	207.84	-1407.2	951.93	334.39	-1408	963.4	259.73	-1283.3	794.59	497.54	-1274.4	834.08	107.54	-1324.2	969.35	465.03	-1279.8	965.94	127.67	-1435.3	912.51	284.75	-1248.3	605.08	501.66	-1180.2	528.8	488.06	-1251.4	514.99	488.44	-1180	618.18	497.75	-1233.7	440.62	486.4	-1207.1	418.56	342.5	-1417.6	358.34	444.76	-1434.6	250.08	431.66	-1474.1	307.83	431.69	-1384.4	295.65	452.92	-1532.9	232.19	415.61	-1500.5	230.47	335.13	-1568	272.11	353.42	-1576.6	244.83	320.64	-1602.8	255.18	382.62	-1525.7	114.45	439.54	-1488.7	87.124	337.87	-1450	61.501	399.37	-1272.3	602.03	140.44	-1183.5	537.17	155.07	-1259.8	515.39	167.13	-1205.1	626.84	129.53	-1192	453.69	171.28	-1201	457.06	307.15	-1278.2	286.52	171.67	-1215.4	196.88	195.49	-1283.1	216.22	186.64	-1216.6	270.74	177.15	-1269.4	98.83	207.61	-1266.5	95.809	290.07	-1334.6	70.29	242.23	-1327.1	44.962	275.44	-1327.9	42.605	213.98	-1161.1	34.905	191.44	-1145	43.151	302.78	-1081.4	57.882	257.8	-1363.2	1398.4	278.43	-1425.9	1143.4	291.73
